<?xml version="1.0" encoding="UTF-8" standalone="no"?><!DOCTYPE svg PUBLIC "-//W3C//DTD SVG 1.1//EN" "http://www.w3.org/Graphics/SVG/1.1/DTD/svg11.dtd"><svg width="100%" height="100%" viewBox="0 0 510 140" version="1.1" xmlns="http://www.w3.org/2000/svg" xmlns:xlink="http://www.w3.org/1999/xlink" xml:space="preserve" style="fill-rule:evenodd;clip-rule:evenodd;stroke-linejoin:round;stroke-miterlimit:1.41421;"><path d="M7.907,102.79c-1.938,-6.304 -2.907,-13.624 -2.907,-21.963c0,-8.338 0.969,-15.659 2.907,-21.962c1.938,-6.304 4.435,-11.329 7.49,-15.076c3.056,-3.747 6.745,-6.8 11.068,-9.157c4.323,-2.358 8.547,-3.934 12.671,-4.728c4.124,-0.794 8.516,-1.191 13.176,-1.191c4.66,0 9.049,0.397 13.165,1.191c4.116,0.794 8.332,2.37 12.647,4.728c4.315,2.357 7.998,5.41 11.048,9.157c3.051,3.747 5.543,8.772 7.477,15.076c1.934,6.303 2.901,13.624 2.901,21.962c0,8.339 -0.967,15.659 -2.901,21.963c-1.934,6.303 -4.426,11.328 -7.477,15.076c-3.05,3.747 -6.733,6.799 -11.048,9.157c-4.315,2.357 -8.531,3.933 -12.647,4.727c-4.116,0.795 -8.505,1.192 -13.165,1.192c-4.66,0 -9.052,-0.397 -13.176,-1.192c-4.124,-0.794 -8.348,-2.37 -12.671,-4.727c-4.323,-2.358 -8.012,-5.41 -11.068,-9.157c-3.055,-3.748 -5.552,-8.773 -7.49,-15.076Zm13.395,-39.421c-1.388,4.938 -2.082,10.758 -2.082,17.458c0,6.701 0.694,12.52 2.082,17.459c1.388,4.938 3.099,8.772 5.131,11.502c2.033,2.73 4.598,4.914 7.697,6.551c3.099,1.638 6.011,2.681 8.738,3.127c2.727,0.447 5.862,0.67 9.407,0.67c3.545,0 6.693,-0.223 9.445,-0.67c2.751,-0.446 5.676,-1.489 8.775,-3.127c3.098,-1.637 5.664,-3.821 7.697,-6.551c2.032,-2.73 3.73,-6.564 5.094,-11.502c1.363,-4.939 2.045,-10.758 2.045,-17.459c0,-6.7 -0.682,-12.52 -2.045,-17.458c-1.364,-4.938 -3.062,-8.773 -5.094,-11.502c-2.033,-2.73 -4.599,-4.914 -7.697,-6.552c-3.099,-1.638 -6.024,-2.68 -8.775,-3.127c-2.752,-0.446 -5.9,-0.67 -9.445,-0.67c-3.545,0 -6.68,0.224 -9.407,0.67c-2.727,0.447 -5.639,1.489 -8.738,3.127c-3.099,1.638 -5.664,3.822 -7.697,6.552c-2.032,2.729 -3.743,6.564 -5.131,11.502Z" style="fill:#1447a1;fill-rule:nonzero;"/><path d="M119.279,131.75l0,-69.626c10.56,-5.2 21.369,-7.801 32.425,-7.801c9.637,0 17.189,2.507 22.656,7.52c5.467,5.013 8.201,11.961 8.201,20.845l0,49.062l-14.22,0l0,-50.145c0,-4.477 -1.144,-8.01 -3.432,-10.596c-2.288,-2.587 -6.889,-3.88 -13.802,-3.88c-6.217,0 -12.186,0.92 -17.906,2.76l0,61.861l-13.922,0Z" style="fill:#1447a1;fill-rule:nonzero;"/><path d="M200.131,107.703c0,-7.521 3.179,-13.396 9.537,-17.627c6.358,-4.23 15.125,-6.345 26.302,-6.345c4.755,0 9.361,0.298 13.819,0.893c-0.297,-6.402 -2.043,-10.993 -5.238,-13.773c-3.195,-2.779 -8.432,-4.169 -15.713,-4.169c-6.602,0 -13.626,1.266 -21.072,3.797l0,-11.912c7.196,-2.73 14.864,-4.095 23.003,-4.095c10.607,0 18.798,2.743 24.575,8.227c5.776,5.484 8.664,13.364 8.664,23.638l0,21.962c0,1.638 -0.162,3.263 -0.485,4.876c-0.324,1.613 -1.096,3.686 -2.316,6.217c-1.221,2.531 -2.877,4.74 -4.969,6.626c-2.092,1.886 -5.23,3.511 -9.414,4.876c-4.184,1.365 -9.016,2.048 -14.495,2.048c-5.615,0 -10.534,-0.71 -14.757,-2.129c-4.224,-1.418 -7.404,-3.074 -9.54,-4.965c-2.137,-1.891 -3.838,-4.132 -5.106,-6.72c-1.267,-2.589 -2.05,-4.729 -2.348,-6.422c-0.298,-1.693 -0.447,-3.36 -0.447,-5.003Zm13.922,-0.149c0,8.587 6.092,12.88 18.276,12.88c0.05,0 0.124,0 0.223,0c11.491,0 17.237,-4.12 17.237,-12.361l0,-12.287c-3.666,-0.592 -8.074,-0.913 -13.224,-0.962c-2.032,0 -4.161,0.185 -6.39,0.555c-2.229,0.369 -4.631,0.949 -7.207,1.739c-2.575,0.79 -4.705,2.098 -6.389,3.923c-1.684,1.826 -2.526,3.997 -2.526,6.513Z" style="fill:#1447a1;fill-rule:nonzero;"/><path d="M283.961,131.75l0,-69.833c10.163,-5.062 20.698,-7.594 31.604,-7.594c8.246,0 15.027,1.911 20.341,5.733c9.574,-3.822 18.875,-5.733 27.902,-5.733c9.615,0 17.111,2.507 22.491,7.52c5.38,5.013 8.07,12.011 8.07,20.994l0,48.913l-13.922,0l0,-49.88c0,-4.368 -1.07,-7.892 -3.209,-10.572c-2.138,-2.68 -6.317,-4.02 -12.534,-4.02c-6.71,0 -13.52,1.414 -20.43,4.243c1.185,3.226 1.777,6.849 1.777,10.87l0,49.359l-13.922,0l0,-49.732c0,-4.466 -1.181,-7.99 -3.544,-10.571c-2.362,-2.581 -7.05,-3.872 -14.064,-3.872c-5.422,0 -10.968,0.77 -16.638,2.308l0,61.867l-13.922,0Z" style="fill:#1447a1;fill-rule:nonzero;"/><rect x="418.118" y="55.663" width="13.922" height="76.087" style="fill:#1447a1;"/><path d="M452.29,77.151c0,-6.295 2.246,-11.649 6.738,-16.061c4.491,-4.412 11.353,-6.618 20.585,-6.618c6.883,0 13.666,1.663 20.351,4.988l0,12.048c-6.584,-3.019 -12.797,-4.528 -18.639,-4.528c-10.075,0 -15.113,3.242 -15.113,9.726c0,2.128 1.34,3.897 4.02,5.308c2.68,1.41 5.907,2.648 9.679,3.712c3.772,1.064 7.549,2.351 11.332,3.86c3.782,1.51 7.021,4.046 9.715,7.61c2.695,3.564 4.042,7.969 4.042,13.215c0,6.138 -2.302,11.427 -6.906,15.869c-4.604,4.441 -11.732,6.662 -21.385,6.662c-8.139,0 -15.46,-1.784 -21.962,-5.35l0,-12.726c6.601,3.712 13.624,5.568 21.069,5.568c0.099,0 0.198,0 0.298,0c4.864,0 8.574,-0.878 11.13,-2.635c2.556,-1.757 3.834,-3.997 3.834,-6.72c0,-3.117 -1.328,-5.629 -3.983,-7.535c-2.655,-1.906 -5.894,-3.391 -9.716,-4.455c-3.821,-1.064 -7.631,-2.251 -11.428,-3.563c-3.796,-1.311 -7.023,-3.489 -9.678,-6.533c-2.655,-3.043 -3.983,-6.991 -3.983,-11.842Z" style="fill:#1447a1;fill-rule:nonzero;"/><path d="M425.079,53.102c0,0 18.695,-17.803 20.772,-26.803c1.765,-7.642 -3.007,-15.279 -10.649,-17.043c-7.642,-1.765 -15.279,3.007 -17.043,10.649c-2.078,9 6.92,33.197 6.92,33.197Zm5.061,-21.923c-4.458,-1.029 -7.241,-5.484 -6.212,-9.942c1.029,-4.458 5.484,-7.241 9.942,-6.212c4.458,1.029 7.241,5.484 6.212,9.942c-1.029,4.457 -5.484,7.241 -9.942,6.212Z" style="fill:#d50000;"/></svg>