<?xml version="1.0" encoding="UTF-8" standalone="no"?><!DOCTYPE svg PUBLIC "-//W3C//DTD SVG 1.1//EN" "http://www.w3.org/Graphics/SVG/1.1/DTD/svg11.dtd"><svg width="100%" height="100%" viewBox="0 0 500 500" version="1.1" xmlns="http://www.w3.org/2000/svg" xmlns:xlink="http://www.w3.org/1999/xlink" xml:space="preserve" style="fill-rule:evenodd;clip-rule:evenodd;stroke-linejoin:round;stroke-miterlimit:1.41421;"><g><path d="M62.298,342.913c-8.199,-26.666 -12.298,-57.637 -12.298,-92.913c0,-35.276 4.099,-66.247 12.298,-92.913c8.199,-26.667 18.762,-47.927 31.688,-63.78c12.927,-15.853 28.535,-28.766 46.824,-38.74c18.289,-9.974 36.157,-16.64 53.604,-20c17.448,-3.36 36.029,-5.039 55.743,-5.039c19.715,0 38.28,1.679 55.694,5.039c17.415,3.36 35.25,10.026 53.504,20c18.255,9.974 33.835,22.887 46.74,38.74c12.905,15.853 23.449,37.113 31.631,63.78c8.183,26.666 12.274,57.637 12.274,92.913c0,35.276 -4.091,66.247 -12.274,92.913c-8.182,26.667 -18.726,47.927 -31.631,63.78c-12.905,15.853 -28.485,28.766 -46.74,38.74c-18.254,9.974 -36.089,16.64 -53.504,20c-17.414,3.36 -35.979,5.039 -55.694,5.039c-19.714,0 -38.295,-1.679 -55.743,-5.039c-17.447,-3.36 -35.315,-10.026 -53.604,-20c-18.289,-9.974 -33.897,-22.887 -46.824,-38.74c-12.926,-15.853 -23.489,-37.113 -31.688,-63.78Zm56.669,-166.771c-5.873,20.892 -8.81,45.512 -8.81,73.858c0,28.346 2.937,52.966 8.81,73.858c5.872,20.893 13.108,37.113 21.707,48.662c8.599,11.548 19.453,20.787 32.562,27.716c13.108,6.929 25.43,11.339 36.966,13.229c11.535,1.889 24.801,2.834 39.798,2.834c14.997,0 28.315,-0.945 39.956,-2.834c11.64,-1.89 24.015,-6.3 37.123,-13.229c13.109,-6.929 23.963,-16.168 32.562,-27.716c8.599,-11.549 15.782,-27.769 21.55,-48.662c5.768,-20.892 8.652,-45.512 8.652,-73.858c0,-28.346 -2.884,-52.966 -8.652,-73.858c-5.768,-20.893 -12.951,-37.113 -21.55,-48.662c-8.599,-11.548 -19.453,-20.787 -32.562,-27.716c-13.108,-6.929 -25.483,-11.339 -37.123,-13.229c-11.641,-1.889 -24.959,-2.834 -39.956,-2.834c-14.997,0 -28.263,0.945 -39.798,2.834c-11.536,1.89 -23.858,6.3 -36.966,13.229c-13.109,6.929 -23.963,16.168 -32.562,27.716c-8.599,11.549 -15.835,27.769 -21.707,48.662Z" style="fill:#1447a1;fill-rule:nonzero;"/><path d="M250,358.54c0,0 68.552,-103.97 68.552,-148.529c0,-37.834 -30.717,-68.551 -68.552,-68.551c-37.835,0 -68.552,30.717 -68.552,68.551c0,44.559 68.552,148.529 68.552,148.529Zm0,-108.54c-22.07,0 -39.989,-17.918 -39.989,-39.989c0,-22.07 17.919,-39.988 39.989,-39.988c22.07,0 39.989,17.918 39.989,39.988c0,22.071 -17.919,39.989 -39.989,39.989Z" style="fill:#d50000;"/></g></svg>