<?xml version="1.0" encoding="UTF-8" standalone="no"?>
<!DOCTYPE svg PUBLIC "-//W3C//DTD SVG 1.1//EN" "http://www.w3.org/Graphics/SVG/1.1/DTD/svg11.dtd">
<svg width="100%" height="100%" viewBox="0 0 800 800" version="1.1" xmlns="http://www.w3.org/2000/svg" xmlns:xlink="http://www.w3.org/1999/xlink" xml:space="preserve" style="fill-rule:evenodd;clip-rule:evenodd;stroke-linejoin:round;stroke-miterlimit:1.41421;">
    <g>
        <path d="M177.104,510.335c-9.736,-31.667 -14.604,-68.445 -14.604,-110.335c0,-41.89 4.868,-78.668 14.604,-110.335c9.736,-31.666 22.279,-56.912 37.63,-75.738c15.35,-18.825 33.884,-34.16 55.602,-46.004c21.719,-11.844 42.937,-19.76 63.656,-23.75c20.719,-3.989 42.784,-5.984 66.195,-5.984c23.411,0 45.457,1.995 66.137,5.984c20.679,3.99 41.858,11.906 63.535,23.75c21.678,11.844 40.179,27.179 55.504,46.004c15.325,18.826 27.845,44.072 37.562,75.738c9.717,31.667 14.575,68.445 14.575,110.335c0,41.89 -4.858,78.668 -14.575,110.335c-9.717,31.666 -22.237,56.912 -37.562,75.738c-15.325,18.825 -33.826,34.16 -55.504,46.004c-21.677,11.844 -42.856,19.76 -63.535,23.75c-20.68,3.989 -42.726,5.984 -66.137,5.984c-23.411,0 -45.476,-1.995 -66.195,-5.984c-20.719,-3.99 -41.937,-11.906 -63.656,-23.75c-21.718,-11.844 -40.252,-27.179 -55.602,-46.004c-15.351,-18.826 -27.894,-44.072 -37.63,-75.738Zm67.294,-198.042c-6.974,24.81 -10.461,54.046 -10.461,87.707c0,33.661 3.487,62.897 10.461,87.707c6.974,24.809 15.566,44.071 25.778,57.785c10.211,13.714 23.1,24.685 38.666,32.914c15.567,8.228 30.199,13.464 43.898,15.708c13.698,2.244 29.451,3.366 47.26,3.366c17.809,0 33.624,-1.122 47.447,-3.366c13.823,-2.244 28.518,-7.48 44.085,-15.708c15.566,-8.229 28.455,-19.2 38.666,-32.914c10.212,-13.714 18.742,-32.976 25.591,-57.785c6.849,-24.81 10.274,-54.046 10.274,-87.707c0,-33.661 -3.425,-62.897 -10.274,-87.707c-6.849,-24.809 -15.379,-44.071 -25.591,-57.785c-10.211,-13.714 -23.1,-24.685 -38.666,-32.914c-15.567,-8.228 -30.262,-13.464 -44.085,-15.708c-13.823,-2.244 -29.638,-3.366 -47.447,-3.366c-17.809,0 -33.562,1.122 -47.26,3.366c-13.699,2.244 -28.331,7.48 -43.898,15.708c-15.566,8.229 -28.455,19.2 -38.666,32.914c-10.212,13.714 -18.804,32.976 -25.778,57.785Z" style="fill:#1447a1;fill-rule:nonzero;"/>
        <path d="M400,531.944c0,0 83.333,-126.388 83.333,-180.555c0,-45.993 -37.34,-83.333 -83.333,-83.333c-45.993,0 -83.333,37.34 -83.333,83.333c0,54.167 83.333,180.555 83.333,180.555Zm0,-131.944c-26.829,0 -48.611,-21.782 -48.611,-48.611c0,-26.829 21.782,-48.611 48.611,-48.611c26.829,0 48.611,21.782 48.611,48.611c0,26.829 -21.782,48.611 -48.611,48.611Z" style="fill:#d50000;"/>
    </g>
</svg>
