<?xml version="1.0" encoding="UTF-8" standalone="no"?>
<!DOCTYPE svg PUBLIC "-//W3C//DTD SVG 1.1//EN" "http://www.w3.org/Graphics/SVG/1.1/DTD/svg11.dtd">
<svg width="100%" height="100%" viewBox="0 0 144 144" version="1.1" xmlns="http://www.w3.org/2000/svg" xmlns:xlink="http://www.w3.org/1999/xlink" xml:space="preserve" style="fill-rule:evenodd;clip-rule:evenodd;stroke-linejoin:round;stroke-miterlimit:1.41421;">
    <g>
        <path d="M18.505,98.48c-2.337,-7.6 -3.505,-16.426 -3.505,-26.48c0,-10.054 1.168,-18.88 3.505,-26.48c2.337,-7.6 5.347,-13.659 9.031,-18.177c3.684,-4.519 8.132,-8.199 13.345,-11.041c5.212,-2.843 10.305,-4.743 15.277,-5.7c4.973,-0.958 10.268,-1.437 15.887,-1.437c5.619,0 10.909,0.479 15.873,1.437c4.963,0.957 10.046,2.857 15.248,5.7c5.203,2.842 9.643,6.522 13.321,11.041c3.678,4.518 6.683,10.577 9.015,18.177c2.332,7.6 3.498,16.426 3.498,26.48c0,10.054 -1.166,18.88 -3.498,26.48c-2.332,7.6 -5.337,13.659 -9.015,18.177c-3.678,4.519 -8.118,8.199 -13.321,11.041c-5.202,2.843 -10.285,4.743 -15.248,5.7c-4.964,0.958 -10.254,1.437 -15.873,1.437c-5.619,0 -10.914,-0.479 -15.887,-1.437c-4.972,-0.957 -10.065,-2.857 -15.277,-5.7c-5.213,-2.842 -9.661,-6.522 -13.345,-11.041c-3.684,-4.518 -6.694,-10.577 -9.031,-18.177Zm16.15,-47.53c-1.673,5.955 -2.51,12.971 -2.51,21.05c0,8.079 0.837,15.095 2.51,21.05c1.674,5.954 3.736,10.577 6.187,13.868c2.451,3.291 5.544,5.925 9.28,7.899c3.736,1.975 7.248,3.232 10.536,3.77c3.287,0.539 7.068,0.808 11.342,0.808c4.274,0 8.07,-0.269 11.387,-0.808c3.318,-0.538 6.845,-1.795 10.581,-3.77c3.736,-1.974 6.829,-4.608 9.28,-7.899c2.45,-3.291 4.498,-7.914 6.141,-13.868c1.644,-5.955 2.466,-12.971 2.466,-21.05c0,-8.079 -0.822,-15.095 -2.466,-21.05c-1.643,-5.954 -3.691,-10.577 -6.141,-13.868c-2.451,-3.291 -5.544,-5.925 -9.28,-7.899c-3.736,-1.975 -7.263,-3.232 -10.581,-3.77c-3.317,-0.539 -7.113,-0.808 -11.387,-0.808c-4.274,0 -8.055,0.269 -11.342,0.808c-3.288,0.538 -6.8,1.795 -10.536,3.77c-3.736,1.974 -6.829,4.608 -9.28,7.899c-2.451,3.291 -4.513,7.914 -6.187,13.868Z" style="fill:#212121;fill-rule:nonzero;"/>
        <path d="M75.75,45.337c0,0 1.85,6.625 1.85,12c0,5.15 -3.375,9.325 -8.525,9.325c-5.175,0 -9.075,-4.175 -9.075,-9.325l0.075,-0.9c-5.05,6 -8.075,13.775 -8.075,22.225c0,11.05 8.95,20 20,20c11.05,0 20,-8.95 20,-20c0,-13.475 -6.475,-25.5 -16.25,-33.325Zm-4.475,45.825c-4.45,0 -8.05,-3.5 -8.05,-7.85c0,-4.05 2.625,-6.9 7.025,-7.8c4.425,-0.9 9,-3.025 11.55,-6.45c0.975,3.225 1.475,6.625 1.475,10.1c0,6.625 -5.375,12 -12,12Z" style="fill:#d50000;fill-rule:nonzero;stroke:#d50000;stroke-width:0.24px;"/>
    </g>
</svg>
