<?xml version="1.0" encoding="UTF-8" standalone="no"?>
<!DOCTYPE svg PUBLIC "-//W3C//DTD SVG 1.1//EN" "http://www.w3.org/Graphics/SVG/1.1/DTD/svg11.dtd">
<svg width="100%" height="100%" viewBox="0 0 736 192" version="1.1" xmlns="http://www.w3.org/2000/svg" xmlns:xlink="http://www.w3.org/1999/xlink" xml:space="preserve" style="fill-rule:evenodd;clip-rule:evenodd;stroke-linejoin:round;stroke-miterlimit:1.41421;">
    <g id="onamis">
        <g>
            <path id="s" d="M657.626,106.601c0,-9.242 3.297,-17.102 9.891,-23.578c6.594,-6.477 16.667,-9.716 30.219,-9.716c10.104,0.001 20.063,2.442 29.876,7.324l0,17.687c-9.665,-4.432 -18.786,-6.648 -27.362,-6.648c-14.791,0 -22.186,4.759 -22.186,14.278c0,3.124 1.967,5.721 5.901,7.792c3.935,2.071 8.671,3.887 14.208,5.449c5.538,1.562 11.083,3.451 16.636,5.667c5.553,2.216 10.307,5.94 14.263,11.172c3.955,5.232 5.933,11.699 5.933,19.4c0,9.01 -3.379,16.775 -10.138,23.295c-6.758,6.519 -17.223,9.779 -31.393,9.779c-11.949,0 -22.697,-2.618 -32.242,-7.853l0,-18.683c9.691,5.45 20.001,8.175 30.93,8.175c0.146,0 0.292,0 0.437,0c7.141,0 12.587,-1.289 16.34,-3.868c3.752,-2.579 5.628,-5.868 5.628,-9.865c0,-4.577 -1.949,-8.264 -5.847,-11.062c-3.898,-2.798 -8.652,-4.978 -14.263,-6.539c-5.61,-1.563 -11.202,-3.305 -16.776,-5.231c-5.574,-1.925 -10.31,-5.121 -14.208,-9.59c-3.898,-4.468 -5.847,-10.263 -5.847,-17.384l0,-0.001Z" style="fill:#212121;fill-rule:nonzero;"/>
            <rect id="i" x="607.46" y="75.056" width="20.438" height="111.697" style="fill:#212121;"/>
            <path id="m" d="M410.515,186.753l0,-102.516c14.919,-7.432 30.385,-11.148 46.396,-11.148c12.106,0 22.059,2.805 29.861,8.415c14.055,-5.61 27.708,-8.415 40.961,-8.415c14.114,0 25.119,3.679 33.017,11.038c7.897,7.359 11.846,17.633 11.846,30.821l0,71.806l-20.438,0l0,-73.227c0,-6.412 -1.57,-11.585 -4.71,-15.519c-3.139,-3.935 -9.273,-5.901 -18.4,-5.901c-9.851,-0.001 -19.849,2.075 -29.992,6.228c1.739,4.737 2.609,10.056 2.609,15.957l0,72.462l-20.438,0l0,-73.008c0,-6.558 -1.734,-11.731 -5.202,-15.52c-3.469,-3.789 -10.351,-5.683 -20.647,-5.683c-7.959,0 -16.101,1.129 -24.425,3.388l0,90.822l-20.438,0l0,0Z" style="fill:#212121;fill-rule:nonzero;"/>
            <path id="a" d="M287.451,151.452c0,-11.041 4.667,-19.667 14.001,-25.877c9.334,-6.21 22.204,-9.316 38.612,-9.316c6.98,0 13.742,0.438 20.286,1.312c-0.437,-9.399 -2.999,-16.139 -7.689,-20.219c-4.69,-4.08 -12.379,-6.121 -23.067,-6.121c-9.692,0 -20.004,1.858 -30.935,5.574l0,-17.486c10.565,-4.008 21.821,-6.012 33.77,-6.012c15.57,0 27.596,4.026 36.076,12.077c8.479,8.052 12.719,19.618 12.719,34.701l0,32.241c0,2.405 -0.237,4.791 -0.713,7.159c-0.475,2.368 -1.608,5.41 -3.4,9.126c-1.791,3.716 -4.222,6.958 -7.293,9.727c-3.071,2.769 -7.678,5.155 -13.821,7.158c-6.142,2.004 -13.235,3.006 -21.278,3.006c-8.243,0 -15.464,-1.041 -21.664,-3.124c-6.2,-2.083 -10.869,-4.513 -14.005,-7.29c-3.137,-2.776 -5.635,-6.065 -7.495,-9.865c-1.86,-3.8 -3.009,-6.943 -3.447,-9.427c-0.438,-2.485 -0.657,-4.933 -0.657,-7.344l0,0Zm20.438,-0.219c0,12.605 8.943,18.908 26.83,18.908c0.073,0 0.182,0 0.328,0c16.868,0 25.303,-6.049 25.303,-18.146l0,-18.039c-5.381,-0.868 -11.852,-1.339 -19.414,-1.412c-2.981,0 -6.108,0.272 -9.38,0.815c-3.272,0.543 -6.798,1.394 -10.579,2.554c-3.781,1.159 -6.908,3.079 -9.38,5.76c-2.472,2.68 -3.708,5.866 -3.708,9.56l0,0Z" style="fill:#212121;fill-rule:nonzero;"/>
            <path id="n" d="M168.759,186.753l0,-102.212c15.503,-7.635 31.37,-11.452 47.601,-11.452c14.146,0 25.233,3.679 33.259,11.038c8.026,7.359 12.039,17.56 12.039,30.602l0,72.024l-20.875,0l0,-73.613c0,-6.574 -1.679,-11.759 -5.038,-15.557c-3.359,-3.797 -10.113,-5.696 -20.261,-5.696c-9.127,0 -17.89,1.351 -26.287,4.053l0,90.813l-20.438,0l0,0Z" style="fill:#212121;fill-rule:nonzero;"/>
            <path id="o" d="M5.262,144.238c-2.845,-9.252 -4.267,-20 -4.267,-32.241c0,-12.241 1.422,-22.988 4.267,-32.241c2.845,-9.254 6.511,-16.631 10.996,-22.132c4.486,-5.501 9.902,-9.982 16.248,-13.443c6.347,-3.461 12.547,-5.774 18.601,-6.94c6.055,-1.166 12.502,-1.749 19.343,-1.749c6.842,0 13.284,0.583 19.326,1.749c6.043,1.166 12.232,3.479 18.567,6.94c6.334,3.461 11.74,7.942 16.218,13.443c4.479,5.501 8.137,12.878 10.977,22.132c2.839,9.253 4.259,20 4.259,32.241c0,12.241 -1.42,22.989 -4.259,32.241c-2.84,9.254 -6.498,16.631 -10.977,22.132c-4.478,5.501 -9.884,9.982 -16.218,13.443c-6.335,3.461 -12.524,5.775 -18.567,6.94c-6.042,1.166 -12.484,1.749 -19.326,1.749c-6.841,0 -13.288,-0.583 -19.343,-1.749c-6.054,-1.165 -12.254,-3.479 -18.601,-6.94c-6.346,-3.461 -11.762,-7.942 -16.248,-13.443c-4.485,-5.501 -8.151,-12.877 -10.996,-22.132l0,0Zm19.665,-57.87c-2.038,7.25 -3.057,15.793 -3.057,25.629c0,9.836 1.019,18.379 3.057,25.629c2.037,7.25 4.548,12.879 7.532,16.886c2.984,4.007 6.751,7.213 11.299,9.618c4.549,2.404 8.825,3.934 12.828,4.59c4.002,0.656 8.606,0.984 13.81,0.984c5.204,0 9.825,-0.328 13.865,-0.984c4.039,-0.656 8.333,-2.186 12.882,-4.59c4.548,-2.405 8.315,-5.611 11.299,-9.618c2.984,-4.007 5.476,-9.636 7.478,-16.886c2.001,-7.25 3.002,-15.793 3.002,-25.629c0,-9.836 -1.001,-18.379 -3.002,-25.629c-2.002,-7.25 -4.494,-12.878 -7.478,-16.886c-2.984,-4.007 -6.751,-7.213 -11.299,-9.618c-4.549,-2.404 -8.843,-3.934 -12.882,-4.59c-4.04,-0.656 -8.661,-0.984 -13.865,-0.984c-5.204,0 -9.808,0.328 -13.81,0.984c-4.003,0.656 -8.279,2.186 -12.828,4.59c-4.548,2.405 -8.315,5.611 -11.299,9.618c-2.984,4.008 -5.495,9.636 -7.532,16.886l0,0Z" style="fill:#212121;fill-rule:nonzero;"/>
            <path d="M622.179,3.497c0,0 2.22,7.95 2.22,14.4c0,6.18 -4.05,11.19 -10.23,11.19c-6.21,0 -10.89,-5.01 -10.89,-11.19l0.09,-1.08c-6.06,7.2 -9.69,16.53 -9.69,26.67c0,13.26 10.74,24 24,24c13.26,0.001 24,-10.74 24,-24c0,-16.17 -7.77,-30.6 -19.5,-39.99Zm-5.37,54.991c-5.34,0 -9.66,-4.2 -9.66,-9.421c0,-4.86 3.15,-8.28 8.43,-9.36c5.31,-1.08 10.8,-3.63 13.86,-7.74c1.17,3.87 1.77,7.95 1.77,12.12c0,7.95 -6.45,14.401 -14.4,14.401Z" style="fill:#d50000;fill-rule:nonzero;stroke:#d50000;stroke-width:1px;"/>
        </g>
    </g>
</svg>
